name C:\Users\u0101727\Documents\MyRepositories\upper-imu-dc\Results\main_tracking\Case_46\FLX02_angularVelocities_bodyFrame.mot
datacolumns 4
datarows 94
range 5.38000000 6.31000000
endheader 
time	radius_imu_x	radius_imu_y	radius_imu_z	
          5.38000000	          0.94274404	         -0.13517561	          0.58237889	
          5.39000000	          0.94229203	         -0.13750438	          0.59291669	
          5.40000000	          0.94183905	         -0.14124777	          0.60364826	
          5.41000000	          0.94137039	         -0.14654574	          0.61438533	
          5.42000000	          0.94089802	         -0.15355199	          0.62493914	
          5.43000000	          0.94046342	         -0.16244275	          0.63512548	
          5.44000000	          0.94013266	         -0.17342032	          0.64477086	
          5.45000000	          0.93998473	         -0.18670784	          0.65371977	
          5.46000000	          0.94009610	         -0.20253292	          0.66184238	
          5.47000000	          0.94052530	         -0.22110077	          0.66904188	
          5.48000000	          0.94130032	         -0.24256030	          0.67526014	
          5.49000000	          0.94241081	         -0.26696857	          0.68048033	
          5.50000000	          0.94380554	         -0.29425964	          0.68472548	
          5.51000000	          0.94539480	         -0.32422307	          0.68805285	
          5.52000000	          0.94705670	         -0.35649478	          0.69054544	
          5.53000000	          0.94864586	         -0.39055805	          0.69230240	
          5.54000000	          0.95000297	         -0.42574905	          0.69343042	
          5.55000000	          0.95096473	         -0.46126239	          0.69403627	
          5.56000000	          0.95137426	         -0.49615791	          0.69422009	
          5.57000000	          0.95109228	         -0.52937616	          0.69406798	
          5.58000000	          0.95000881	         -0.55977241	          0.69364427	
          5.59000000	          0.94805427	         -0.58617589	          0.69298478	
          5.60000000	          0.94520723	         -0.60747393	          0.69209328	
          5.61000000	          0.94149730	         -0.62271524	          0.69094303	
          5.62000000	          0.93700351	         -0.63122247	          0.68948336	
          5.63000000	          0.93185086	         -0.63270156	          0.68765026	
          5.64000000	          0.92620792	         -0.62733074	          0.68537830	
          5.65000000	          0.92028541	         -0.61580475	          0.68261155	
          5.66000000	          0.91433262	         -0.59930371	          0.67931105	
          5.67000000	          0.90862746	         -0.57936782	          0.67545789	
          5.68000000	          0.90345991	         -0.55769639	          0.67105237	
          5.69000000	          0.89911286	         -0.53592012	          0.66611092	
          5.70000000	          0.89584513	         -0.51539530	          0.66066214	
          5.71000000	          0.89387988	         -0.49705069	          0.65474295	
          5.72000000	          0.89339884	         -0.48130251	          0.64839495	
          5.73000000	          0.89454084	         -0.46804077	          0.64166065	
          5.74000000	          0.89740160	         -0.45668021	          0.63457908	
          5.75000000	          0.90203257	         -0.44626267	          0.62718061	
          5.76000000	          0.90843788	         -0.43559600	          0.61948155	
          5.77000000	          0.91657039	         -0.42341371	          0.61148003	
          5.78000000	          0.92632834	         -0.40853772	          0.60315483	
          5.79000000	          0.93755404	         -0.39002550	          0.59446838	
          5.80000000	          0.95003543	         -0.36728709	          0.58537473	
          5.81000000	          0.96351226	         -0.34016670	          0.57583163	
          5.82000000	          0.97768740	         -0.30898961	          0.56581513	
          5.83000000	          0.99224266	         -0.27456790	          0.55533359	
          5.84000000	          1.00685555	         -0.23814877	          0.54443789	
          5.85000000	          1.02121320	         -0.20129453	          0.53322501	
          5.86000000	          1.03502171	         -0.16570685	          0.52183397	
          5.87000000	          1.04801278	         -0.13303081	          0.51043568	
          5.88000000	          1.05995077	         -0.10467975	          0.49921904	
          5.89000000	          1.07064217	         -0.08171122	          0.48837689	
          5.90000000	          1.07994658	         -0.06476644	          0.47809427	
          5.91000000	          1.08778651	         -0.05406991	          0.46854074	
          5.92000000	          1.09415291	         -0.04947457	          0.45986713	
          5.93000000	          1.09910559	         -0.05053364	          0.45220594	
          5.94000000	          1.10276872	         -0.05658065	          0.44567354	
          5.95000000	          1.10532256	         -0.06680514	          0.44037218	
          5.96000000	          1.10699228	         -0.08031744	          0.43638964	
          5.97000000	          1.10803419	         -0.09620178	          0.43379562	
          5.98000000	          1.10871993	         -0.11356063	          0.43263455	
          5.99000000	          1.10931850	         -0.13155324	          0.43291665	
          6.00000000	          1.11007603	         -0.14942915	          0.43461050	
          6.01000000	          1.11119280	         -0.16655376	          0.43764063	
          6.02000000	          1.11279845	         -0.18242184	          0.44189226	
          6.03000000	          1.11492847	         -0.19665594	          0.44722269	
          6.04000000	          1.11750769	         -0.20899066	          0.45347563	
          6.05000000	          1.12034712	         -0.21924851	          0.46049373	
          6.06000000	          1.12315827	         -0.22731559	          0.46812528	
          6.07000000	          1.12558412	         -0.23312393	          0.47622403	
          6.08000000	          1.12724130	         -0.23664139	          0.48464415	
          6.09000000	          1.12776517	         -0.23786724	          0.49323362	
          6.10000000	          1.12685130	         -0.23683166	          0.50182929	
          6.11000000	          1.12428936	         -0.23359895	          0.51025516	
          6.12000000	          1.11998731	         -0.22827278	          0.51832432	
          6.13000000	          1.11398338	         -0.22099996	          0.52584433	
          6.14000000	          1.10644352	         -0.21196868	          0.53262562	
          6.15000000	          1.09764365	         -0.20139893	          0.53849147	
          6.16000000	          1.08793973	         -0.18952598	          0.54328716	
          6.17000000	          1.07773161	         -0.17658238	          0.54688548	
          6.18000000	          1.06742776	         -0.16278702	          0.54918633	
          6.19000000	          1.05741636	         -0.14834729	          0.55011004	
          6.20000000	          1.04804469	         -0.13347328	          0.54958592	
          6.21000000	          1.03960553	         -0.11839499	          0.54753956	
          6.22000000	          1.03232821	         -0.10337085	          0.54388194	
          6.23000000	          1.02637299	         -0.08868040	          0.53850261	
          6.24000000	          1.02182900	         -0.07460202	          0.53126755	
          6.25000000	          1.01871586	         -0.06138140	          0.52202222	
          6.26000000	          1.01698766	         -0.04919603	          0.51059985	
          6.27000000	          1.01653681	         -0.03811867	          0.49683473	
          6.28000000	          1.01719691	         -0.02808146	          0.48057998	
          6.29000000	          1.01874614	         -0.01884340	          0.46172808	
          6.30000000	          1.02091447	         -0.00996555	          0.44023201	
          6.31000000	          1.02339716	         -0.00080030	          0.41612414	
